<svg width="40" height="40" viewBox="0 0 40 40" fill="none" xmlns="http://www.w3.org/2000/svg">
<g clip-path="url(#clip0_20_535)">
<path d="M20 39.9995C16.0444 39.9995 12.1776 38.8266 8.88863 36.6289C5.59964 34.4313 3.03619 31.3077 1.52243 27.6532C0.00867233 23.9987 -0.387401 19.9774 0.384297 16.0978C1.15599 12.2181 3.0608 8.65447 5.85785 5.85742C8.21049 3.50538 11.1126 1.77719 14.3014 0.82928C17.4902 -0.118629 20.865 -0.256329 24.1205 0.428646C27.3759 1.11362 30.4091 2.59964 32.9456 4.7522C35.482 6.90476 37.4416 9.65588 38.6469 12.7566C38.6941 12.8764 38.7171 13.0045 38.7147 13.1333C38.7123 13.2621 38.6844 13.3892 38.6328 13.5072C38.5811 13.6252 38.5067 13.7319 38.4137 13.821C38.3207 13.9102 38.211 13.9801 38.0909 14.0268C37.9708 14.0735 37.8427 14.096 37.7139 14.093C37.5851 14.0901 37.4582 14.0617 37.3404 14.0096C37.2226 13.9574 37.1162 13.8825 37.0274 13.7891C36.9387 13.6958 36.8692 13.5858 36.823 13.4655C34.1054 6.47406 27.502 1.95648 20 1.95648C10.0511 1.95648 1.95699 10.0505 1.95699 19.9995C1.95699 29.9485 10.0511 38.0426 20 38.0426C27.502 38.0426 34.1054 33.525 36.823 26.5335C36.8692 26.4132 36.9387 26.3033 37.0274 26.2099C37.1162 26.1166 37.2226 26.0416 37.3404 25.9895C37.4582 25.9373 37.5851 25.909 37.7139 25.906C37.8427 25.9031 37.9708 25.9256 38.0909 25.9722C38.211 26.0189 38.3207 26.0888 38.4137 26.178C38.5067 26.2672 38.5811 26.3739 38.6328 26.4919C38.6844 26.6099 38.7123 26.737 38.7147 26.8658C38.7171 26.9946 38.6941 27.1226 38.6469 27.2425C37.1861 31.0001 34.6241 34.2287 31.2966 36.5052C27.9692 38.7816 24.0316 39.9996 20 39.9995Z" fill="#858585"/>
<path d="M9.07984 19.9995C9.07937 20.175 9.1137 20.3488 9.18085 20.511C9.24799 20.6731 9.34661 20.8203 9.47101 20.9441L13.8875 25.3605C13.9781 25.4525 14.086 25.5257 14.205 25.5758C14.3241 25.6259 14.4518 25.652 14.5809 25.6525C14.7101 25.653 14.838 25.6279 14.9574 25.5787C15.0768 25.5296 15.1853 25.4572 15.2766 25.3659C15.3679 25.2746 15.4403 25.1661 15.4895 25.0467C15.5387 24.9273 15.5637 24.7994 15.5632 24.6702C15.5628 24.5411 15.5367 24.4133 15.4866 24.2943C15.4365 24.1753 15.3633 24.0674 15.2713 23.9768L12.2725 20.978H39.0216C39.2811 20.978 39.53 20.8749 39.7135 20.6914C39.897 20.5079 40.0001 20.259 40.0001 19.9995C40.0001 19.74 39.897 19.4911 39.7135 19.3076C39.53 19.1241 39.2811 19.021 39.0216 19.021H12.2725L15.2713 16.0222C15.4525 15.8383 15.5536 15.5901 15.5526 15.3319C15.5516 15.0737 15.4486 14.8263 15.266 14.6438C15.0834 14.4612 14.836 14.3582 14.5778 14.3572C14.3196 14.3562 14.0715 14.4573 13.8875 14.6385L9.47117 19.0549C9.34669 19.1786 9.24801 19.3258 9.18084 19.488C9.11367 19.6501 9.07934 19.824 9.07984 19.9995Z" fill="#858585"/>
</g>
<defs>
<clipPath id="clip0_20_535">
<rect width="40" height="40" fill="white"/>
</clipPath>
</defs>
</svg>
