<svg width="40" height="40" viewBox="0 0 40 40" fill="none" xmlns="http://www.w3.org/2000/svg">
<path d="M20 39.9995C23.9556 39.9995 27.8224 38.8266 31.1114 36.6289C34.4004 34.4313 36.9638 31.3077 38.4776 27.6532C39.9913 23.9987 40.3874 19.9774 39.6157 16.0978C38.844 12.2181 36.9392 8.65447 34.1422 5.85742C31.7895 3.50538 28.8874 1.77719 25.6986 0.82928C22.5098 -0.118629 19.135 -0.256329 15.8795 0.428646C12.6241 1.11362 9.59089 2.59964 7.05445 4.7522C4.51801 6.90476 2.55843 9.65588 1.35309 12.7566C1.30592 12.8764 1.28288 13.0045 1.2853 13.1333C1.28772 13.2621 1.31556 13.3892 1.36722 13.5072C1.41888 13.6252 1.49334 13.7319 1.58632 13.821C1.67931 13.9102 1.78899 13.9801 1.90907 14.0268C2.02915 14.0735 2.15727 14.096 2.28607 14.093C2.41487 14.0901 2.54182 14.0617 2.65962 14.0096C2.77743 13.9574 2.88378 13.8825 2.97256 13.7891C3.06135 13.6958 3.13082 13.5858 3.177 13.4655C5.89458 6.47406 12.498 1.95648 20 1.95648C29.9489 1.95648 38.043 10.0505 38.043 19.9995C38.043 29.9485 29.9489 38.0426 20 38.0426C12.498 38.0426 5.89458 33.525 3.177 26.5335C3.13082 26.4132 3.06135 26.3033 2.97256 26.2099C2.88378 26.1166 2.77743 26.0416 2.65962 25.9895C2.54182 25.9373 2.41487 25.909 2.28607 25.906C2.15727 25.9031 2.02915 25.9256 1.90907 25.9722C1.78899 26.0189 1.67931 26.0888 1.58632 26.178C1.49334 26.2672 1.41888 26.3739 1.36722 26.4919C1.31556 26.6099 1.28772 26.737 1.2853 26.8658C1.28288 26.9946 1.30592 27.1226 1.35309 27.2425C2.81392 31.0001 5.37595 34.2287 8.70337 36.5052C12.0308 38.7816 15.9684 39.9996 20 39.9995Z" fill="#858585"/>
<path d="M30.9202 19.9995C30.9206 20.175 30.8863 20.3488 30.8192 20.511C30.752 20.6731 30.6534 20.8203 30.529 20.9441L26.1125 25.3605C26.0219 25.4525 25.914 25.5257 25.795 25.5758C25.6759 25.6259 25.5482 25.652 25.4191 25.6525C25.2899 25.653 25.162 25.6279 25.0426 25.5787C24.9232 25.5296 24.8147 25.4572 24.7234 25.3659C24.6321 25.2746 24.5597 25.1661 24.5105 25.0467C24.4613 24.9273 24.4363 24.7994 24.4368 24.6702C24.4372 24.5411 24.4633 24.4133 24.5134 24.2943C24.5635 24.1753 24.6367 24.0674 24.7287 23.9768L27.7275 20.978H0.978439C0.718922 20.978 0.470034 20.8749 0.286526 20.6914C0.103018 20.5079 -7.24792e-05 20.259 -7.24792e-05 19.9995C-7.24792e-05 19.74 0.103018 19.4911 0.286526 19.3076C0.470034 19.1241 0.718922 19.021 0.978439 19.021H27.7275L24.7287 16.0222C24.5475 15.8383 24.4464 15.5901 24.4474 15.3319C24.4484 15.0737 24.5514 14.8263 24.734 14.6438C24.9166 14.4612 25.164 14.3582 25.4222 14.3572C25.6804 14.3562 25.9285 14.4573 26.1125 14.6385L30.5288 19.0549C30.6533 19.1786 30.752 19.3258 30.8192 19.488C30.8863 19.6501 30.9207 19.824 30.9202 19.9995Z" fill="#858585"/>
</svg>
